<svg xmlns="http://www.w3.org/2000/svg" width="1600" height="1200" viewBox="0 0 1600 1200">
<rect width="100%" height="100%" fill="#0c0d11"/>
<defs><linearGradient id="g" x1="0" y1="0" x2="1" y2="1"><stop offset="0" stop-color="#ffffff" stop-opacity="0.10"/><stop offset="1" stop-color="#ffffff" stop-opacity="0.00"/></linearGradient></defs>
<rect width="100%" height="100%" fill="url(#g)"/>
<polygon points="1262,734 1552,685 1640,893 1350,910" fill="#f5f6f7" fill-opacity="0.08"/>
<polygon points="1622,492 1862,445 1684,862 1444,838" fill="#f5f6f7" fill-opacity="0.1"/>
<polygon points="1495,-150 1697,-198 1531,85 1329,160" fill="#f5f6f7" fill-opacity="0.1"/>
<polygon points="401,175 790,201 940,592 551,570" fill="#f5f6f7" fill-opacity="0.12"/>
<polygon points="972,1379 1468,1393 1292,1626 796,1597" fill="#f5f6f7" fill-opacity="0.1"/>
<polygon points="247,1219 743,1203 766,1600 270,1592" fill="#f5f6f7" fill-opacity="0.05"/>
<polygon points="1351,881 1766,935 1644,1271 1229,1266" fill="#f5f6f7" fill-opacity="0.04"/>
<polygon points="786,98 1033,82 1075,433 828,378" fill="#f5f6f7" fill-opacity="0.08"/>
<polygon points="1683,512 1912,556 1848,678 1619,629" fill="#f5f6f7" fill-opacity="0.1"/>
<polygon points="1369,1380 1597,1305 1526,1696 1298,1756" fill="#f5f6f7" fill-opacity="0.08"/>
<line x1="1122" y1="1171" x2="1029" y2="1252" stroke="#f5f6f7" stroke-opacity="0.16" stroke-width="2"/>
<line x1="436" y1="32" x2="-103" y2="243" stroke="#f5f6f7" stroke-opacity="0.08" stroke-width="2"/>
<line x1="565" y1="1224" x2="270" y2="544" stroke="#f5f6f7" stroke-opacity="0.1" stroke-width="2"/>
<line x1="1057" y1="386" x2="1431" y2="134" stroke="#f5f6f7" stroke-opacity="0.1" stroke-width="2"/>
<line x1="691" y1="215" x2="975" y2="-313" stroke="#f5f6f7" stroke-opacity="0.16" stroke-width="2"/>
<line x1="-43" y1="877" x2="-13" y2="854" stroke="#f5f6f7" stroke-opacity="0.08" stroke-width="2"/>
<line x1="1035" y1="197" x2="1519" y2="-431" stroke="#f5f6f7" stroke-opacity="0.12" stroke-width="2"/>
<line x1="462" y1="1227" x2="1300" y2="1002" stroke="#f5f6f7" stroke-opacity="0.08" stroke-width="2"/>
<line x1="833" y1="533" x2="745" y2="203" stroke="#f5f6f7" stroke-opacity="0.1" stroke-width="2"/>
<line x1="448" y1="644" x2="632" y2="1166" stroke="#f5f6f7" stroke-opacity="0.08" stroke-width="2"/>
<line x1="1332" y1="1158" x2="1739" y2="1812" stroke="#f5f6f7" stroke-opacity="0.16" stroke-width="2"/>
<line x1="607" y1="173" x2="387" y2="798" stroke="#f5f6f7" stroke-opacity="0.08" stroke-width="2"/>
<line x1="1630" y1="-43" x2="2003" y2="43" stroke="#f5f6f7" stroke-opacity="0.1" stroke-width="2"/>
<line x1="740" y1="778" x2="1528" y2="670" stroke="#f5f6f7" stroke-opacity="0.12" stroke-width="2"/>
<line x1="1122" y1="1006" x2="874" y2="1154" stroke="#f5f6f7" stroke-opacity="0.12" stroke-width="2"/>
<line x1="446" y1="967" x2="-385" y2="1085" stroke="#f5f6f7" stroke-opacity="0.16" stroke-width="2"/>
<line x1="572" y1="760" x2="-39" y2="338" stroke="#f5f6f7" stroke-opacity="0.16" stroke-width="2"/>
<line x1="1486" y1="809" x2="1981" y2="1267" stroke="#f5f6f7" stroke-opacity="0.08" stroke-width="2"/>
<polygon points="160.0,840.0 1472.0,336.00000000000006 1520.0,408.00000000000006 208.0,912.0" fill="#f5f6f7" fill-opacity="0.07"/>
<polygon points="192.0,912.0 1520.0,408.00000000000006 1536.0,491.99999999999994 224.00000000000003,996.0" fill="#f5f6f7" fill-opacity="0.03"/>
</svg>