<svg xmlns="http://www.w3.org/2000/svg" width="1600" height="1200" viewBox="0 0 1600 1200">
<rect width="100%" height="100%" fill="#0c0d11"/>
<defs><linearGradient id="g" x1="0" y1="0" x2="1" y2="1"><stop offset="0" stop-color="#ffffff" stop-opacity="0.10"/><stop offset="1" stop-color="#ffffff" stop-opacity="0.00"/></linearGradient></defs>
<rect width="100%" height="100%" fill="url(#g)"/>
<polygon points="990,198 1446,130 1465,501 1009,549" fill="#f5f6f7" fill-opacity="0.05"/>
<polygon points="1032,254 1359,228 1493,622 1166,626" fill="#f5f6f7" fill-opacity="0.08"/>
<polygon points="-56,322 222,355 47,524 -231,581" fill="#f5f6f7" fill-opacity="0.06"/>
<polygon points="192,766 538,789 644,1008 298,1036" fill="#f5f6f7" fill-opacity="0.05"/>
<polygon points="-72,680 347,628 235,955 -184,1034" fill="#f5f6f7" fill-opacity="0.12"/>
<polygon points="472,1161 788,1178 968,1483 652,1461" fill="#f5f6f7" fill-opacity="0.08"/>
<polygon points="-43,628 351,603 368,751 -26,807" fill="#f5f6f7" fill-opacity="0.04"/>
<polygon points="507,-156 876,-169 660,148 291,212" fill="#f5f6f7" fill-opacity="0.05"/>
<polygon points="-130,684 142,642 -45,946 -317,969" fill="#f5f6f7" fill-opacity="0.12"/>
<polygon points="1291,542 1805,504 1828,953 1314,1000" fill="#f5f6f7" fill-opacity="0.1"/>
<line x1="537" y1="271" x2="1052" y2="657" stroke="#f5f6f7" stroke-opacity="0.08" stroke-width="2"/>
<line x1="72" y1="35" x2="-763" y2="513" stroke="#f5f6f7" stroke-opacity="0.12" stroke-width="2"/>
<line x1="994" y1="805" x2="1811" y2="348" stroke="#f5f6f7" stroke-opacity="0.16" stroke-width="2"/>
<line x1="1522" y1="1205" x2="909" y2="871" stroke="#f5f6f7" stroke-opacity="0.1" stroke-width="2"/>
<line x1="1411" y1="1020" x2="1425" y2="605" stroke="#f5f6f7" stroke-opacity="0.08" stroke-width="2"/>
<line x1="207" y1="538" x2="-2" y2="606" stroke="#f5f6f7" stroke-opacity="0.08" stroke-width="2"/>
<line x1="22" y1="1023" x2="249" y2="1040" stroke="#f5f6f7" stroke-opacity="0.16" stroke-width="2"/>
<line x1="17" y1="294" x2="-313" y2="984" stroke="#f5f6f7" stroke-opacity="0.12" stroke-width="2"/>
<line x1="85" y1="473" x2="-500" y2="285" stroke="#f5f6f7" stroke-opacity="0.16" stroke-width="2"/>
<line x1="318" y1="770" x2="-353" y2="1143" stroke="#f5f6f7" stroke-opacity="0.12" stroke-width="2"/>
<line x1="400" y1="95" x2="74" y2="732" stroke="#f5f6f7" stroke-opacity="0.1" stroke-width="2"/>
<line x1="-76" y1="-72" x2="320" y2="37" stroke="#f5f6f7" stroke-opacity="0.16" stroke-width="2"/>
<line x1="1243" y1="1066" x2="434" y2="1055" stroke="#f5f6f7" stroke-opacity="0.1" stroke-width="2"/>
<line x1="1519" y1="459" x2="1584" y2="1111" stroke="#f5f6f7" stroke-opacity="0.1" stroke-width="2"/>
<line x1="1031" y1="1114" x2="1227" y2="1059" stroke="#f5f6f7" stroke-opacity="0.12" stroke-width="2"/>
<line x1="-63" y1="173" x2="-373" y2="180" stroke="#f5f6f7" stroke-opacity="0.12" stroke-width="2"/>
<line x1="725" y1="720" x2="1132" y2="131" stroke="#f5f6f7" stroke-opacity="0.1" stroke-width="2"/>
<line x1="957" y1="35" x2="499" y2="-362" stroke="#f5f6f7" stroke-opacity="0.08" stroke-width="2"/>
<polygon points="160.0,840.0 1472.0,336.00000000000006 1520.0,408.00000000000006 208.0,912.0" fill="#f5f6f7" fill-opacity="0.07"/>
<polygon points="192.0,912.0 1520.0,408.00000000000006 1536.0,491.99999999999994 224.00000000000003,996.0" fill="#f5f6f7" fill-opacity="0.03"/>
</svg>