<svg xmlns="http://www.w3.org/2000/svg" width="1600" height="1200" viewBox="0 0 1600 1200">
<rect width="100%" height="100%" fill="#0c0d11"/>
<defs><linearGradient id="g" x1="0" y1="0" x2="1" y2="1"><stop offset="0" stop-color="#ffffff" stop-opacity="0.10"/><stop offset="1" stop-color="#ffffff" stop-opacity="0.00"/></linearGradient></defs>
<rect width="100%" height="100%" fill="url(#g)"/>
<polygon points="1255,781 1443,822 1492,1185 1304,1119" fill="#f5f6f7" fill-opacity="0.06"/>
<polygon points="1447,-70 1723,-39 1689,302 1413,337" fill="#f5f6f7" fill-opacity="0.12"/>
<polygon points="1138,379 1432,422 1354,738 1060,693" fill="#f5f6f7" fill-opacity="0.05"/>
<polygon points="362,547 793,540 611,846 180,855" fill="#f5f6f7" fill-opacity="0.06"/>
<polygon points="1469,166 1720,95 1543,507 1292,450" fill="#f5f6f7" fill-opacity="0.12"/>
<polygon points="457,5 730,66 736,316 463,315" fill="#f5f6f7" fill-opacity="0.1"/>
<polygon points="315,817 723,776 625,1154 217,1110" fill="#f5f6f7" fill-opacity="0.08"/>
<polygon points="217,118 522,182 466,334 161,395" fill="#f5f6f7" fill-opacity="0.05"/>
<polygon points="68,447 385,527 467,634 150,645" fill="#f5f6f7" fill-opacity="0.1"/>
<polygon points="727,897 1103,924 1217,1126 841,1107" fill="#f5f6f7" fill-opacity="0.12"/>
<line x1="972" y1="653" x2="869" y2="1321" stroke="#f5f6f7" stroke-opacity="0.16" stroke-width="2"/>
<line x1="1684" y1="1247" x2="2245" y2="831" stroke="#f5f6f7" stroke-opacity="0.1" stroke-width="2"/>
<line x1="1115" y1="-30" x2="1712" y2="-21" stroke="#f5f6f7" stroke-opacity="0.08" stroke-width="2"/>
<line x1="1356" y1="92" x2="2028" y2="495" stroke="#f5f6f7" stroke-opacity="0.16" stroke-width="2"/>
<line x1="913" y1="958" x2="1505" y2="709" stroke="#f5f6f7" stroke-opacity="0.08" stroke-width="2"/>
<line x1="342" y1="93" x2="974" y2="249" stroke="#f5f6f7" stroke-opacity="0.08" stroke-width="2"/>
<line x1="662" y1="362" x2="1423" y2="263" stroke="#f5f6f7" stroke-opacity="0.1" stroke-width="2"/>
<line x1="1509" y1="159" x2="1916" y2="-497" stroke="#f5f6f7" stroke-opacity="0.08" stroke-width="2"/>
<line x1="1013" y1="529" x2="1488" y2="397" stroke="#f5f6f7" stroke-opacity="0.08" stroke-width="2"/>
<line x1="578" y1="845" x2="-317" y2="1024" stroke="#f5f6f7" stroke-opacity="0.1" stroke-width="2"/>
<line x1="120" y1="518" x2="-221" y2="-97" stroke="#f5f6f7" stroke-opacity="0.12" stroke-width="2"/>
<line x1="-97" y1="898" x2="-559" y2="784" stroke="#f5f6f7" stroke-opacity="0.1" stroke-width="2"/>
<line x1="-32" y1="1138" x2="-265" y2="448" stroke="#f5f6f7" stroke-opacity="0.1" stroke-width="2"/>
<line x1="1250" y1="1268" x2="1992" y2="1648" stroke="#f5f6f7" stroke-opacity="0.12" stroke-width="2"/>
<line x1="1349" y1="564" x2="698" y2="-67" stroke="#f5f6f7" stroke-opacity="0.12" stroke-width="2"/>
<line x1="996" y1="-31" x2="337" y2="-340" stroke="#f5f6f7" stroke-opacity="0.12" stroke-width="2"/>
<line x1="1150" y1="977" x2="1099" y2="378" stroke="#f5f6f7" stroke-opacity="0.12" stroke-width="2"/>
<line x1="555" y1="309" x2="1263" y2="973" stroke="#f5f6f7" stroke-opacity="0.16" stroke-width="2"/>
<polygon points="160.0,840.0 1472.0,336.00000000000006 1520.0,408.00000000000006 208.0,912.0" fill="#f5f6f7" fill-opacity="0.07"/>
<polygon points="192.0,912.0 1520.0,408.00000000000006 1536.0,491.99999999999994 224.00000000000003,996.0" fill="#f5f6f7" fill-opacity="0.03"/>
</svg>