<svg xmlns="http://www.w3.org/2000/svg" width="1600" height="1200" viewBox="0 0 1600 1200">
<rect width="100%" height="100%" fill="#0c0d11"/>
<defs><linearGradient id="g" x1="0" y1="0" x2="1" y2="1"><stop offset="0" stop-color="#ffffff" stop-opacity="0.10"/><stop offset="1" stop-color="#ffffff" stop-opacity="0.00"/></linearGradient></defs>
<rect width="100%" height="100%" fill="url(#g)"/>
<polygon points="1765,-160 2046,-156 2026,76 1745,-3" fill="#f5f6f7" fill-opacity="0.12"/>
<polygon points="56,-166 321,-216 176,7 -89,-54" fill="#f5f6f7" fill-opacity="0.12"/>
<polygon points="1343,475 1711,543 1594,626 1226,611" fill="#f5f6f7" fill-opacity="0.08"/>
<polygon points="460,1072 727,1002 716,1345 449,1384" fill="#f5f6f7" fill-opacity="0.08"/>
<polygon points="898,299 1210,229 1281,511 969,456" fill="#f5f6f7" fill-opacity="0.04"/>
<polygon points="1024,53 1287,79 1354,302 1091,309" fill="#f5f6f7" fill-opacity="0.04"/>
<polygon points="516,1076 973,1020 1169,1298 712,1228" fill="#f5f6f7" fill-opacity="0.12"/>
<polygon points="1167,744 1627,697 1730,1108 1270,1084" fill="#f5f6f7" fill-opacity="0.05"/>
<polygon points="167,870 440,886 495,1010 222,938" fill="#f5f6f7" fill-opacity="0.05"/>
<polygon points="746,128 1034,63 857,474 569,433" fill="#f5f6f7" fill-opacity="0.04"/>
<line x1="-80" y1="164" x2="686" y2="-37" stroke="#f5f6f7" stroke-opacity="0.08" stroke-width="2"/>
<line x1="48" y1="866" x2="419" y2="1315" stroke="#f5f6f7" stroke-opacity="0.16" stroke-width="2"/>
<line x1="1191" y1="1021" x2="1270" y2="1415" stroke="#f5f6f7" stroke-opacity="0.1" stroke-width="2"/>
<line x1="1373" y1="783" x2="1108" y2="136" stroke="#f5f6f7" stroke-opacity="0.08" stroke-width="2"/>
<line x1="1657" y1="895" x2="1820" y2="1488" stroke="#f5f6f7" stroke-opacity="0.08" stroke-width="2"/>
<line x1="1085" y1="-43" x2="704" y2="-697" stroke="#f5f6f7" stroke-opacity="0.1" stroke-width="2"/>
<line x1="1496" y1="892" x2="1522" y2="447" stroke="#f5f6f7" stroke-opacity="0.08" stroke-width="2"/>
<line x1="294" y1="1084" x2="-107" y2="1592" stroke="#f5f6f7" stroke-opacity="0.08" stroke-width="2"/>
<line x1="1565" y1="1153" x2="2001" y2="1080" stroke="#f5f6f7" stroke-opacity="0.08" stroke-width="2"/>
<line x1="1056" y1="242" x2="1459" y2="-308" stroke="#f5f6f7" stroke-opacity="0.08" stroke-width="2"/>
<line x1="755" y1="332" x2="188" y2="430" stroke="#f5f6f7" stroke-opacity="0.12" stroke-width="2"/>
<line x1="1008" y1="264" x2="597" y2="-261" stroke="#f5f6f7" stroke-opacity="0.1" stroke-width="2"/>
<line x1="332" y1="371" x2="1191" y2="181" stroke="#f5f6f7" stroke-opacity="0.08" stroke-width="2"/>
<line x1="1403" y1="309" x2="1783" y2="-280" stroke="#f5f6f7" stroke-opacity="0.16" stroke-width="2"/>
<line x1="936" y1="369" x2="1077" y2="756" stroke="#f5f6f7" stroke-opacity="0.1" stroke-width="2"/>
<line x1="882" y1="302" x2="1434" y2="601" stroke="#f5f6f7" stroke-opacity="0.08" stroke-width="2"/>
<line x1="46" y1="494" x2="298" y2="-28" stroke="#f5f6f7" stroke-opacity="0.16" stroke-width="2"/>
<line x1="362" y1="1026" x2="-392" y2="392" stroke="#f5f6f7" stroke-opacity="0.16" stroke-width="2"/>
<polygon points="160.0,840.0 1472.0,336.00000000000006 1520.0,408.00000000000006 208.0,912.0" fill="#f5f6f7" fill-opacity="0.07"/>
<polygon points="192.0,912.0 1520.0,408.00000000000006 1536.0,491.99999999999994 224.00000000000003,996.0" fill="#f5f6f7" fill-opacity="0.03"/>
</svg>