<svg xmlns="http://www.w3.org/2000/svg" width="1600" height="1200" viewBox="0 0 1600 1200">
<rect width="100%" height="100%" fill="#0c0d11"/>
<defs><linearGradient id="g" x1="0" y1="0" x2="1" y2="1"><stop offset="0" stop-color="#ffffff" stop-opacity="0.10"/><stop offset="1" stop-color="#ffffff" stop-opacity="0.00"/></linearGradient></defs>
<rect width="100%" height="100%" fill="url(#g)"/>
<polygon points="1598,1011 1956,958 2140,1428 1782,1348" fill="#f5f6f7" fill-opacity="0.06"/>
<polygon points="873,1373 1345,1334 1274,1664 802,1673" fill="#f5f6f7" fill-opacity="0.05"/>
<polygon points="1338,102 1569,65 1528,424 1297,454" fill="#f5f6f7" fill-opacity="0.1"/>
<polygon points="591,742 1025,708 1167,978 733,1054" fill="#f5f6f7" fill-opacity="0.06"/>
<polygon points="1765,876 2073,955 2020,1027 1712,976" fill="#f5f6f7" fill-opacity="0.06"/>
<polygon points="1485,1286 1760,1335 1812,1606 1537,1671" fill="#f5f6f7" fill-opacity="0.12"/>
<polygon points="1082,804 1579,875 1552,1187 1055,1180" fill="#f5f6f7" fill-opacity="0.1"/>
<polygon points="1231,54 1701,48 1664,388 1194,375" fill="#f5f6f7" fill-opacity="0.1"/>
<polygon points="60,26 522,46 738,392 276,403" fill="#f5f6f7" fill-opacity="0.1"/>
<polygon points="1370,-171 1830,-237 1714,46 1254,122" fill="#f5f6f7" fill-opacity="0.05"/>
<line x1="555" y1="771" x2="579" y2="1266" stroke="#f5f6f7" stroke-opacity="0.1" stroke-width="2"/>
<line x1="1245" y1="-34" x2="498" y2="566" stroke="#f5f6f7" stroke-opacity="0.08" stroke-width="2"/>
<line x1="628" y1="1070" x2="356" y2="918" stroke="#f5f6f7" stroke-opacity="0.1" stroke-width="2"/>
<line x1="1233" y1="646" x2="1180" y2="565" stroke="#f5f6f7" stroke-opacity="0.08" stroke-width="2"/>
<line x1="1668" y1="129" x2="990" y2="436" stroke="#f5f6f7" stroke-opacity="0.1" stroke-width="2"/>
<line x1="793" y1="1175" x2="589" y2="653" stroke="#f5f6f7" stroke-opacity="0.1" stroke-width="2"/>
<line x1="1459" y1="-11" x2="1145" y2="-264" stroke="#f5f6f7" stroke-opacity="0.1" stroke-width="2"/>
<line x1="1437" y1="146" x2="2302" y2="191" stroke="#f5f6f7" stroke-opacity="0.1" stroke-width="2"/>
<line x1="1333" y1="961" x2="865" y2="1525" stroke="#f5f6f7" stroke-opacity="0.12" stroke-width="2"/>
<line x1="468" y1="141" x2="566" y2="841" stroke="#f5f6f7" stroke-opacity="0.16" stroke-width="2"/>
<line x1="1460" y1="-81" x2="1790" y2="-442" stroke="#f5f6f7" stroke-opacity="0.1" stroke-width="2"/>
<line x1="1458" y1="330" x2="1741" y2="-270" stroke="#f5f6f7" stroke-opacity="0.16" stroke-width="2"/>
<line x1="1638" y1="558" x2="2275" y2="339" stroke="#f5f6f7" stroke-opacity="0.12" stroke-width="2"/>
<line x1="613" y1="641" x2="-257" y2="330" stroke="#f5f6f7" stroke-opacity="0.12" stroke-width="2"/>
<line x1="1217" y1="694" x2="1011" y2="1316" stroke="#f5f6f7" stroke-opacity="0.08" stroke-width="2"/>
<line x1="375" y1="400" x2="14" y2="-125" stroke="#f5f6f7" stroke-opacity="0.12" stroke-width="2"/>
<line x1="34" y1="1252" x2="823" y2="991" stroke="#f5f6f7" stroke-opacity="0.08" stroke-width="2"/>
<line x1="1303" y1="-34" x2="1554" y2="-554" stroke="#f5f6f7" stroke-opacity="0.12" stroke-width="2"/>
<polygon points="160.0,840.0 1472.0,336.00000000000006 1520.0,408.00000000000006 208.0,912.0" fill="#f5f6f7" fill-opacity="0.07"/>
<polygon points="192.0,912.0 1520.0,408.00000000000006 1536.0,491.99999999999994 224.00000000000003,996.0" fill="#f5f6f7" fill-opacity="0.03"/>
</svg>